<svg width="98" height="46" viewBox="0 0 98 46" fill="none" xmlns="http://www.w3.org/2000/svg">
<g clip-path="url(#clip0_11_20)">
<path d="M22.7151 45.4423C35.2602 45.4423 45.4301 35.3838 45.4301 22.976C45.4301 10.5682 35.2602 0.509644 22.7151 0.509644C10.1699 0.509644 0 10.5682 0 22.976C0 35.3838 10.1699 45.4423 22.7151 45.4423Z" fill="black"/>
<path d="M88.0895 14.8951C90.6715 14.8951 92.7647 12.8249 92.7647 10.2711C92.7647 7.71733 90.6715 5.64709 88.0895 5.64709C85.5075 5.64709 83.4143 7.71733 83.4143 10.2711C83.4143 12.8249 85.5075 14.8951 88.0895 14.8951Z" fill="black"/>
<path d="M75.0312 9.24801C77.6132 9.24801 79.7064 7.17777 79.7064 4.62401C79.7064 2.07024 77.6132 0 75.0312 0C72.4491 0 70.356 2.07024 70.356 4.62401C70.356 7.17777 72.4491 9.24801 75.0312 9.24801Z" fill="black"/>
<path d="M61.7636 14.426C64.3456 14.426 66.4388 12.3558 66.4388 9.80199C66.4388 7.24822 64.3456 5.17798 61.7636 5.17798C59.1815 5.17798 57.0884 7.24822 57.0884 9.80199C57.0884 12.3558 59.1815 14.426 61.7636 14.426Z" fill="black"/>
<path d="M56.1249 27.3858C58.707 27.3858 60.8001 25.3156 60.8001 22.7618C60.8001 20.2081 58.707 18.1378 56.1249 18.1378C53.5429 18.1378 51.4497 20.2081 51.4497 22.7618C51.4497 25.3156 53.5429 27.3858 56.1249 27.3858Z" fill="black"/>
<path d="M61.4423 40.4896C64.0243 40.4896 66.1175 38.4194 66.1175 35.8656C66.1175 33.3118 64.0243 31.2416 61.4423 31.2416C58.8602 31.2416 56.7671 33.3118 56.7671 35.8656C56.7671 38.4194 58.8602 40.4896 61.4423 40.4896Z" fill="black"/>
<path d="M74.5941 46C77.1762 46 79.2693 43.9297 79.2693 41.376C79.2693 38.8222 77.1762 36.752 74.5941 36.752C72.0121 36.752 69.9189 38.8222 69.9189 41.376C69.9189 43.9297 72.0121 46 74.5941 46Z" fill="black"/>
<path d="M87.828 40.6559C90.4101 40.6559 92.5032 38.5856 92.5032 36.0318C92.5032 33.4781 90.4101 31.4078 87.828 31.4078C85.246 31.4078 83.1528 33.4781 83.1528 36.0318C83.1528 38.5856 85.246 40.6559 87.828 40.6559Z" fill="black"/>
<path d="M93.3285 27.5999C95.9106 27.5999 98.0037 25.5297 98.0037 22.9759C98.0037 20.4222 95.9106 18.3519 93.3285 18.3519C90.7465 18.3519 88.6533 20.4222 88.6533 22.9759C88.6533 25.5297 90.7465 27.5999 93.3285 27.5999Z" fill="black"/>
</g>
<defs>
<clipPath id="clip0_11_20">
<rect width="98" height="46" fill="white"/>
</clipPath>
</defs>
</svg>
