<svg width="331" height="62" viewBox="0 0 331 62" fill="none" xmlns="http://www.w3.org/2000/svg">
<g clip-path="url(#clip0_11_3)">
<path d="M0 3.07391H10.3311L22.4663 34.7029C24.8125 41.0449 28.3398 52.9442 28.3398 52.9442H28.4935C28.4935 52.9442 32.0936 41.1258 34.4397 34.7029L46.3484 3.07391H56.995V61.3166H49.3256V26.0878C49.3256 20.9188 49.7948 11.1389 49.7948 11.1389H49.6411C49.6411 11.1389 47.295 19.9077 45.5718 24.4457L31.3978 61.3166H25.1361L10.9621 24.4457C9.31984 19.9077 6.8928 11.1389 6.8928 11.1389H6.73909C6.73909 11.1389 7.20831 20.9269 7.20831 26.0878V61.3166H0V3.07391Z" fill="black"/>
<path d="M273.56 30.5693C273.56 12.9994 284.514 0 302.24 0C319.965 0 331 12.9994 331 30.5693C331 48.1392 319.892 61.1386 302.24 61.1386C284.587 61.1386 273.56 48.0583 273.56 30.5693ZM322.643 30.5693C322.643 17.1007 315.548 6.93249 302.24 6.93249C288.931 6.93249 281.755 17.0926 281.755 30.5693C281.755 44.046 288.931 54.0443 302.24 54.0443C315.548 54.0443 322.643 43.957 322.643 30.5693Z" fill="black"/>
<path d="M259.151 53.0574V60.3378H266.432V53.0574V45.7771V38.4968H259.151V45.7771V53.0574Z" fill="black"/>
<path d="M259.151 9.37546V16.6558V23.9361V31.2164H266.432V23.9361V16.6558V9.37546H259.151Z" fill="black"/>
<path d="M244.589 31.2164H237.308H230.027V9.37545H237.308H244.589H251.87H259.151V2.09512H251.87H244.589H237.308H230.027H222.746V60.3378H230.027V38.4968H237.308H244.589H251.87H259.151V31.2164H251.87H244.589Z" fill="black"/>
<path d="M100.528 9.69904V16.9794V24.2597V31.54H93.2471H85.9659H78.6848H71.4037V9.69904H64.1226V60.6613H71.4037V38.8204H78.6848H85.9659H93.2471H100.528V46.1007V53.381V60.6613H107.809V53.381V46.1007V38.8204V31.54V24.2597V16.9794V9.69904H100.528Z" fill="black"/>
<path d="M85.9658 9.69903H93.2469H100.528V2.4187H93.2469H85.9658H78.6847H71.4036V9.69903H78.6847H85.9658Z" fill="black"/>
<path d="M158.623 2.74225H151.342H144.061H136.78H129.499H122.218H114.937V10.0226H122.218H129.499H136.78V17.3029V24.5832V31.8636V39.1439V46.4242V53.7046V60.9849H144.061V53.7046V46.4242V39.1439V31.8636V24.5832V17.3029V10.0226H151.342H158.623H165.904V2.74225H158.623Z" fill="black"/>
<path d="M211.468 7.40976C208.491 3.81004 203.718 1.77155 197.529 1.77155H181.09V8.73639H196.275C203.475 8.73639 207.625 12.2552 207.625 19.0664C207.625 25.8775 203.863 29.5581 195.959 29.5581H181.081V8.73639H173.016V60.0142H181.081V36.0619H196.736C209.34 36.0619 215.602 29.5662 215.602 18.8399C215.602 14.2209 214.033 10.4675 211.452 7.40976H211.468Z" fill="black"/>
</g>
<defs>
<clipPath id="clip0_11_3">
<rect width="331" height="62" fill="white"/>
</clipPath>
</defs>
</svg>
